#!OML:ASF \\sashay\E\Suitcase\Project 1\Capture day 1\Session 1\Male1.ASF
:FULLY-SPECIFIED
:DEGREES
700
root 0.769799 17.0662 12.9693 2.01591 -0.53824 -0.128197
lowerback 4.84263 0.732577 -1.20581
upperback -1.44159 0.9481 1.1873
thorax -4.24604 0.51883 1.82369
lowerneck -22.0007 -1.3383 -0.566553
upperneck 21.7871 -1.06828 -2.30324
head 10.637 -0.830369 -0.900025
rclavicle 1.86112e-014 -7.95139e-016
rhumerus -51.5562 -34.1193 -48.9864
rradius 13.5322
rwrist 9.66379
rhand -13.0206 16.6536
rfingers 7.12502
rthumb 13.0734 -12.9167
lclavicle 1.86112e-014 -7.95139e-016
lhumerus -47.6161 14.8163 72.6485
lradius 24.2497
lwrist -12.1904
lhand 1.41466 44.8801
lfingers 7.12502
lthumb 26.9447 72.979
rfemur -2.05027 -1.58347 19.5903
rtibia 54.7815
rfoot 12.9246 -2.15839
rtoes 12.9297
lfemur -18.5998 -1.95285 -25.9981
ltibia 27.3175
lfoot -12.8991 -5.6333
ltoes 15.5369
701
root 0.778971 17.0341 13.1188 1.81082 -0.455799 0.287199
lowerback 5.16185 0.597366 -1.74753
upperback -1.36849 0.726464 1.14868
thorax -4.34868 0.422788 2.10538
lowerneck -20.9957 -0.95775 -1.31592
upperneck 20.3624 -0.862588 -0.1717
head 9.95129 -0.523803 0.0314237
rclavicle -1.80149e-015 1.59028e-015
rhumerus -51.5377 -33.7854 -48.998
rradius 13.3312
rwrist 10.1932
rhand -13.0264 15.9212
rfingers 7.12502
rthumb 13.0678 -13.6494
lclavicle -1.80149e-015 1.59028e-015
lhumerus -47.6414 14.9151 72.5914
lradius 24.5472
lwrist -11.3466
lhand 0.686579 44.2954
lfingers 7.12502
lthumb 26.2478 72.5
rfemur -3.55127 -1.67327 18.9534
rtibia 57.7734
rfoot 11.443 -2.5494
rtoes 11.1358
lfemur -17.4882 -1.64505 -26.6261
ltibia 27.1932
lfoot -13.9406 -4.94611
ltoes 10.0458
702
root 0.79057 17.0511 13.27 1.57747 -0.251603 0.641143
lowerback 6.11665 0.494516 -2.23715
upperback -1.72858 0.542527 1.26844
thorax -5.26445 0.362656 2.51905
lowerneck -20.2331 -1.0131 -1.58184
upperneck 20.1429 -0.792779 -0.488628
head 9.73463 -0.549839 -0.0218284
rclavicle -3.26752e-014 -9.93923e-015
rhumerus -53.2296 -34.1524 -46.7639
rradius 13.5975
rwrist 11.9628
rhand -12.2981 15.5344
rfingers 7.12502
rthumb 13.7698 -13.99
lclavicle -3.26752e-014 -9.93923e-015
lhumerus -48.4791 14.5909 72.8179
lradius 25.5704
lwrist -10.6901
lhand 1.04497 45.2267
lfingers 7.12502
lthumb 26.5909 73.3798
rfemur -4.96068 -2.09475 18.3319
rtibia 60.3734
rfoot 10.7219 -3.43746
rtoes 8.38241
lfemur -16.8377 -1.90295 -27.0229
ltibia 27.1231
lfoot -13.4417 -5.63134
ltoes 15.893
703
root 0.798652 17.0438 13.4303 1.24685 -0.0519519 0.99344
lowerback 6.55754 0.446363 -2.3452
upperback -1.65721 0.446678 1.0026
thorax -5.43311 0.315483 2.31208
lowerneck -20.153 -0.981554 -1.70872
upperneck 20.015 -0.825555 -0.0186748
head 9.67723 -0.518281 0.159461
rclavicle -9.76219e-015 -5.1684e-015
rhumerus -53.8372 -33.6663 -47.0677
rradius 13.8532
rwrist 11.5542
rhand -12.4561 15.6804
rfingers 7.12502
rthumb 13.6174 -13.8542
lclavicle -9.76219e-015 -5.1684e-015
lhumerus -48.0858 13.7998 72.9499
lradius 25.5283
lwrist -9.74591
lhand 0.963908 44.8489
lfingers 7.12502
lthumb 26.5133 73.0137
rfemur -6.15998 -2.45316 17.7835
rtibia 62.8224
rfoot 9.14814 -4.35155
rtoes 10.9925
lfemur -15.6272 -2.02272 -27.4011
ltibia 26.9451
lfoot -14.3621 -5.67327
ltoes 13.3145
704
root 0.803129 17.0645 13.5878 1.03148 0.18366 1.19537
lowerback 6.60962 0.29483 -2.67024
upperback -1.32842 0.2197 1.05556
thorax -5.1073 0.205689 2.57522
lowerneck -20.6306 -0.721376 -1.1197
upperneck 19.9905 -0.445946 -0.820821
head 9.74863 -0.392378 -0.166336
rclavicle 1.7462e-014 -1.19271e-014
rhumerus -52.7286 -32.1643 -48.9568
rradius 14.0543
rwrist 9.89734
rhand -12.016 14.4781
rfingers 7.12502
rthumb 14.0416 -15.0276
lclavicle 1.7462e-014 -1.19271e-014
lhumerus -47.638 13.6413 73.3442
lradius 26.3148
lwrist -9.18354
lhand 1.09938 46.1418
lfingers 7.12502
lthumb 26.643 74.2869
rfemur -7.45866 -2.83449 17.4189
rtibia 64.9019
rfoot 7.8619 -5.11602
rtoes 10.0836
lfemur -14.8988 -2.16213 -27.6107
ltibia 26.7181
lfoot -14.0289 -6.50909
ltoes 19.8976
705
root 0.805144 17.0433 13.7401 0.855264 0.647353 1.43484
lowerback 6.86647 0.182577 -2.97811
upperback -1.33796 0.0391371 1.111
thorax -5.25269 0.129236 2.82778
lowerneck -20.4028 -0.864775 -2.15379
upperneck 20.1226 -0.619457 0.400851
head 9.76199 -0.407905 0.407981
rclavicle -5.46658e-015 -2.38542e-015
rhumerus -52.755 -31.4441 -49.0422
rradius 13.8774
rwrist 9.33433
rhand -11.6542 13.9182
rfingers 7.12502
rthumb 14.3902 -15.563
lclavicle -5.46658e-015 -2.38542e-015
lhumerus -47.5111 12.866 73.9723
lradius 26.814
lwrist -8.63945
lhand 0.990476 45.8549
lfingers 7.12502
lthumb 26.5387 74.0159
rfemur -8.92199 -3.35223 17.0086
rtibia 66.9796
rfoot 6.95724 -5.70672
rtoes 11.1463
lfemur -13.637 -2.00077 -27.9943
ltibia 26.2938
lfoot -14.6636 -6.16215
ltoes 10.8682
706
root 0.805646 17.0564 13.8945 0.677391 1.01623 1.59046
lowerback 7.23318 -0.000391739 -3.21224
upperback -1.25619 -0.23444 1.14744
thorax -5.35528 0.00263037 3.03159
lowerneck -20.4402 -0.872107 -1.87195
upperneck 20.108 -0.589563 -0.125627
head 9.76097 -0.434994 0.181157
rclavicle -1.14239e-014 -2.78299e-015
rhumerus -52.4741 -30.8017 -49.4909
rradius 13.6213
rwrist 9.04403
rhand -11.5582 14.1252
rfingers 7.12502
rthumb 14.4827 -15.3493
lclavicle -1.14239e-014 -2.78299e-015
lhumerus -47.1156 12.0774 74.6484
lradius 27.4022
lwrist -7.63492
lhand 0.238419 45.4147
lfingers 7.12502
lthumb 25.8187 73.6824
rfemur -10.3322 -3.83293 16.7461
rtibia 68.6931
rfoot 6.18364 -6.22493
rtoes 13.2051
lfemur -12.5491 -1.98673 -28.1953
ltibia 25.7737
lfoot -15.0471 -6.44847
ltoes 10.505
707
root 0.805466 17.0533 14.0475 0.533204 1.46872 1.82567
lowerback 7.13445 -0.183661 -3.55802
upperback -1.01024 -0.504226 1.15327
thorax -5.01862 -0.131119 3.26071
lowerneck -20.3447 -0.865291 -1.84037
upperneck 19.849 -0.600472 -0.0971752
head 9.6519 -0.432678 0.18497
rclavicle 5.98839e-015 3.97569e-015
rhumerus -52.3372 -30.1881 -49.9676
rradius 13.6491
rwrist 8.60688
rhand -11.6662 13.8669
rfingers 7.12502
rthumb 14.3787 -15.6151
lclavicle 5.98839e-015 3.97569e-015
lhumerus -46.3645 11.6596 75.0001
lradius 27.3268
lwrist -7.61225
lhand 0.76658 44.8336
lfingers 7.12502
lthumb 26.3244 73.0268
rfemur -11.4848 -4.26744 16.381
rtibia 70.2776
rfoot 4.92928 -6.75282
rtoes 12.6665
lfemur -11.4287 -2.22873 -28.4902
ltibia 25.1174
lfoot -15.3808 -6.37189
ltoes 8.82656
708
root 0.810806 17.0537 14.1934 0.412499 2.0141 2.09063
lowerback 6.91624 -0.321859 -3.65572
upperback -0.575427 -0.692894 0.957243
thorax -4.42613 -0.244452 3.12413
lowerneck -20.3463 -0.843635 -1.18494
upperneck 19.3886 -0.656955 -0.601786
head 9.48586 -0.465904 -0.105617
rclavicle 2.01269e-015 1.07344e-014
rhumerus -52.3605 -30.7826 -49.9529
rradius 13.4169
rwrist 9.21304
rhand -12.2125 13.4072
rfingers 7.12502
rthumb 13.8523 -16.1115
lclavicle 2.01269e-015 1.07344e-014
lhumerus -45.414 11.3305 75.1217
lradius 27.9615
lwrist -8.04653
lhand 0.546683 44.9867
lfingers 7.12502
lthumb 26.1139 73.2112
rfemur -12.7837 -4.9372 15.9424
rtibia 71.5725
rfoot 4.44937 -6.9536
rtoes 10.7681
lfemur -10.448 -2.51008 -28.8344
ltibia 24.6626
lfoot -15.5318 -6.61557
ltoes 8.13469
709
root 0.813933 17.0518 14.3359 0.263476 2.42971 2.30378
lowerback 7.49796 -0.393817 -3.91107
upperback -0.758437 -0.831767 1.05065
thorax -4.93081 -0.290872 3.39264
lowerneck -20.4441 -0.907516 -1.53568
upperneck 19.935 -0.617471 -0.653526
head 9.69793 -0.483661 -0.0626232
rclavicle -3.6154e-015 1.43125e-014
rhumerus -53.6002 -31.235 -48.2056
rradius 13.5309
rwrist 10.773
rhand -12.1137 13.5461
rfingers 7.12502
rthumb 13.9475 -15.9661
lclavicle -3.6154e-015 1.43125e-014
lhumerus -45.3761 10.6128 75.6686
lradius 28.4652
lwrist -8.19681
lhand 1.14884 44.5479
lfingers 7.12502
lthumb 26.6903 72.6858
rfemur -14.0824 -5.27659 15.5752
rtibia 72.7466
rfoot 3.45271 -7.51871
rtoes 11.6302
lfemur -9.49698 -2.70972 -29.113
ltibia 24.2786
lfoot -15.7543 -6.61627
ltoes 6.92319
710
root 0.81728 17.0592 14.4759 0.156157 2.89027 2.43372
lowerback 7.47858 -0.598259 -4.00417
upperback -0.554274 -1.11503 0.92121
thorax -4.68217 -0.43978 3.33848
lowerneck -20.3362 -0.746263 -0.926664
upperneck 19.9606 -0.508753 -0.977117
head 9.68348 -0.424431 -0.260338
rclavicle 1.28962e-014 -7.15625e-015
rhumerus -54.069 -31.8695 -47.5705
rradius 13.3362
rwrist 11.6817
rhand -12.1249 13.1062
rfingers 7.12502
rthumb 13.9366 -16.4068
lclavicle 1.28962e-014 -7.15625e-015
lhumerus -44.2895 9.69506 75.9929
lradius 28.1701
lwrist -7.63792
lhand 0.360903 43.9371
lfingers 7.12502
lthumb 25.936 72.1877
rfemur -15.1762 -5.67595 15.3221
rtibia 73.5406
rfoot 2.99878 -7.54217
rtoes 13.4323
lfemur -8.82083 -3.21358 -29.2029
ltibia 24.1283
lfoot -15.4827 -7.43197
ltoes 12.4076
